<svg xmlns="http://www.w3.org/2000/svg" width="101.854" height="26" viewBox="0 0 101.854 26">
  <path id="Subtraction_3" data-name="Subtraction 3" d="M4.15,26H0A37.209,37.209,0,0,1,7.778,15.547,50.3,50.3,0,0,1,19.426,7.32,63.59,63.59,0,0,1,34.093,1.932a74.293,74.293,0,0,1,33.669,0A63.566,63.566,0,0,1,82.428,7.32a50.3,50.3,0,0,1,11.648,8.227A37.184,37.184,0,0,1,101.854,26H97.7a41,41,0,0,0-3.628-3.953A50.3,50.3,0,0,0,82.428,13.82,63.566,63.566,0,0,0,67.762,8.432a74.293,74.293,0,0,0-33.669,0A63.59,63.59,0,0,0,19.426,13.82,50.294,50.294,0,0,0,7.778,22.047,41.037,41.037,0,0,0,4.15,26Z" fill="#fff"/>
</svg>
