<svg xmlns="http://www.w3.org/2000/svg" xmlns:xlink="http://www.w3.org/1999/xlink" width="344" height="344" viewBox="0 0 344 344">
  <defs>
    <clipPath id="clip-Artboard_1">
      <rect width="344" height="344"/>
    </clipPath>
  </defs>
  <g id="Artboard_1" data-name="Artboard – 1" clip-path="url(#clip-Artboard_1)">
    <path id="Subtraction_10" data-name="Subtraction 10" d="M784,371H527.681l-43.84-43.841V70.841L527.681,27H784l43.841,43.841V327.159L784,371Z" transform="translate(-483.841 -27)"/>
    <path id="Union_2" data-name="Union 2" d="M13.612,209.963a20.905,20.905,0,0,1-10.553-8c-4.042-6.242-4.079-14.823-.107-25.51,3.836-10.319,11.229-22.162,21.974-35.2a292.562,292.562,0,0,1,21.521-23.2,105.123,105.123,0,0,1-.657-11.772,102.983,102.983,0,0,1,155.053-89.25c1.049-.428,2.07-.84,3.056-1.232C229.885,5.464,252.525,0,269.369,0a48.734,48.734,0,0,1,17,2.6,20.877,20.877,0,0,1,10.555,8c4.042,6.242,4.077,14.825.105,25.51-3.836,10.323-11.229,22.166-21.974,35.2a297.594,297.594,0,0,1-23.6,25.213q.45,4.84.45,9.758a102.983,102.983,0,0,1-154.11,89.8c-.586.237-1.153.464-1.709.685-25.985,10.338-48.625,15.8-65.471,15.8A48.8,48.8,0,0,1,13.612,209.963Zm48.209-103.68c0,48.116,39.041,87.262,87.027,87.262s87.027-39.146,87.027-87.262S196.834,19.02,148.848,19.02,61.821,58.167,61.821,106.283ZM51.4,143.374c-9.6,9.778-16.529,18.386-20.587,25.59-4.207,7.465-5.145,13.1-2.787,16.737,1.923,2.97,5.977,4.475,12.05,4.475h.014c8.826,0,21.758-3.186,37.51-9.227q-.821-.788-1.627-1.6a103.033,103.033,0,0,1-22.088-32.847q-.844-2-1.6-4.027Q51.844,142.925,51.4,143.374ZM221.721,33.213a103.033,103.033,0,0,1,22.088,32.847q1.193,2.828,2.211,5.707c.869-.861,1.727-1.722,2.564-2.576,9.6-9.772,16.527-18.382,20.587-25.59,4.207-7.465,5.145-13.1,2.789-16.737-1.923-2.97-5.984-4.477-12.066-4.477-9.142,0-22.641,3.406-39.146,9.863Q221.237,32.728,221.721,33.213Z" transform="translate(22.006 65.718)" fill="#fff"/>
  </g>
</svg>
