<svg xmlns="http://www.w3.org/2000/svg" width="130.988" height="92.565" viewBox="0 0 130.988 92.565">
  <path id="Union_1" data-name="Union 1" d="M5.944,91.432a9.125,9.125,0,0,1-4.608-3.485c-1.765-2.718-1.781-6.455-.047-11.109,1.675-4.494,4.9-9.651,9.595-15.327a127.535,127.535,0,0,1,9.4-10.1,45.656,45.656,0,0,1-.287-5.126A45,45,0,0,1,87.7,7.417c.458-.186.9-.366,1.335-.537C100.378,2.38,110.264,0,117.618,0a21.332,21.332,0,0,1,7.425,1.134,9.113,9.113,0,0,1,4.609,3.484c1.765,2.718,1.78,6.456.046,11.109-1.675,4.5-4.9,9.653-9.595,15.327A129.733,129.733,0,0,1,109.8,42.033q.2,2.107.2,4.249A45,45,0,0,1,42.7,85.385l-.746.3c-11.346,4.5-21.232,6.881-28.588,6.881A21.362,21.362,0,0,1,5.944,91.432Zm21.05-45.149a38,38,0,1,0,38-38A38.043,38.043,0,0,0,26.994,46.283ZM22.444,62.435a57.219,57.219,0,0,0-8.989,11.144c-1.837,3.251-2.246,5.7-1.217,7.288.84,1.293,2.61,1.949,5.261,1.949h.006c3.854,0,9.5-1.387,16.379-4.018q-.358-.343-.71-.7A44.861,44.861,0,0,1,23.53,63.8q-.368-.871-.7-1.754ZM96.813,14.463a44.861,44.861,0,0,1,9.644,14.3q.521,1.232.966,2.485c.38-.375.754-.75,1.12-1.122a57.154,57.154,0,0,0,8.989-11.144c1.837-3.251,2.246-5.7,1.218-7.288-.84-1.293-2.613-1.949-5.269-1.949-3.992,0-9.886,1.483-17.093,4.295Q96.6,14.252,96.813,14.463Z" transform="translate(0)" fill="#fff"/>
</svg>
