<svg xmlns="http://www.w3.org/2000/svg" width="105" height="26" viewBox="0 0 105 26">
  <g id="Union_1" data-name="Union 1" fill="#fff">
    <path d="M 104.5003128051758 25.50010299682617 L 0.5000059008598328 25.50010299682617 L 0.5000059008598328 23.20102310180664 L 21.99961280822754 0.7233602404594421 L 35.81644439697266 15.16815757751465 L 36.16981887817383 15.53759765625 L 36.53132629394531 15.17610359191895 L 43.00020217895508 8.70722770690918 L 52.07663345336914 17.78421020507813 L 52.43468475341797 18.14229011535645 L 52.78819274902344 17.77970314025879 L 66.50009155273438 3.71593713760376 L 80.21173858642578 17.7794246673584 L 80.56523132324219 18.14198303222656 L 80.92330169677734 17.7839298248291 L 90.00001525878906 8.707217216491699 L 104.5003128051758 23.20750427246094 L 104.5003128051758 25.50010299682617 Z" stroke="none"/>
    <path d="M 104.0003128051758 25.00010681152344 L 104.0003128051758 23.41460800170898 L 90 9.414301872253418 L 81.27685546875 18.13747978210449 L 80.56072235107422 18.85360717773438 L 79.85373687744141 18.12847900390625 L 66.50009918212891 4.432167530059814 L 53.14620971679688 18.12874984741211 L 52.43919372558594 18.85392189025879 L 51.72306823730469 18.13775062561035 L 43.00017929077148 9.414322853088379 L 36.88486862182617 15.52963638305664 L 36.16188049316406 16.25263595581055 L 35.45512390136719 15.51376438140869 L 21.99962425231934 1.446724057197571 L 0.9999954700469971 23.40166282653809 L 0.9999954700469971 25.00010681152344 L 104.0003128051758 25.00010681152344 M 105.0003128051758 26.00010681152344 L -4.554966380965197e-06 26.00010681152344 L -4.554966380965197e-06 23.00040817260742 L 21.99960899353027 -6.598118488909677e-06 L 36.17776870727539 14.82253646850586 L 43.00020980834961 8.000093460083008 L 52.43019485473633 17.4306640625 L 66.50009918212891 2.999693393707275 L 80.56974029541016 17.43037986755371 L 89.99999237060547 8.000093460083008 L 105.0003128051758 23.00040817260742 L 105.0003128051758 26.00010681152344 Z" stroke="none" fill="#fff"/>
  </g>
</svg>
